<svg id="Layer_1" data-name="Layer 1" xmlns="http://www.w3.org/2000/svg" viewBox="0 0 34 34"><defs><style>.cls-1{fill:#ececec;}.cls-1,.cls-2,.cls-3,.cls-4,.cls-5,.cls-6,.cls-7,.cls-9{fill-rule:evenodd;}.cls-2{fill:#388e3c;}.cls-3{fill:#e4b480;}.cls-4{fill:#e7be86;}.cls-5{fill:#eac797;}.cls-6{fill:#c69c87;}.cls-7{fill:#91432b;}.cls-8{fill:#3f3d3d;}.cls-9{fill:#4caf50;}</style></defs><title>user avatar 1</title><path class="cls-1" d="M679.32,294a17,17,0,0,1-9.12,15.06,16.47,16.47,0,0,1-2.66,1.13c-0.31.1-.62,0.19-0.94,0.27a17.27,17.27,0,0,1-8.87-.08c-0.42-.12-0.83-0.25-1.24-0.4A17,17,0,1,1,679.32,294Z" transform="translate(-645.32 -277)"/><path class="cls-2" d="M659.35,306.79l-1.62,3.59c-0.42-.12-0.83-0.25-1.24-0.4a16.88,16.88,0,0,1-2.37-1.08c0.24-1.69.72-3.44,1.74-3.78C655.86,305.12,659.21,306.68,659.35,306.79Z" transform="translate(-645.32 -277)"/><path class="cls-2" d="M670.2,309.06a16.5,16.5,0,0,1-3.6,1.4l-1.66-3.53c0.15-.11,3.49-1.68,3.49-1.68C669.49,305.6,670,307.37,670.2,309.06Z" transform="translate(-645.32 -277)"/><path class="cls-3" d="M662.05,301.66h-1.57v1c0,0.61-.12.53-0.69,0.84a4.87,4.87,0,0,1-.7.46c0.7,2.21,1.2,5.06,2.56,7.06h0.81c1.36-2,1.87-4.85,2.56-7.06a5.2,5.2,0,0,1-.74-0.5c-0.57-.32-0.66-0.19-0.66-0.8v-1h-1.57Z" transform="translate(-645.32 -277)"/><path class="cls-4" d="M666.38,292.33a2,2,0,0,0,1.69,2.36,2.07,2.07,0,0,0,2.5-1.6,2.12,2.12,0,0,0-1.69-2.5A2.17,2.17,0,0,0,666.38,292.33Z" transform="translate(-645.32 -277)"/><path class="cls-4" d="M654.14,292.33a2,2,0,0,0,1.69,2.36,2.07,2.07,0,0,0,2.5-1.6,2.12,2.12,0,0,0-1.69-2.5A2.17,2.17,0,0,0,654.14,292.33Z" transform="translate(-645.32 -277)"/><path class="cls-5" d="M668.1,286.23a6.32,6.32,0,0,0-4.76-2.63h-0.1v-0.07l-0.92,0-0.92,0v0.07h-0.1a6.32,6.32,0,0,0-4.76,2.63,8.17,8.17,0,0,0-1.19,5.35c0.23,4.78.66,10.14,7,10.19s6.73-5.44,7-10.19A8.18,8.18,0,0,0,668.1,286.23Z" transform="translate(-645.32 -277)"/><path class="cls-6" d="M664,296.24a1.45,1.45,0,0,1,0,.32,1.4,1.4,0,1,1-2.81,0,1.45,1.45,0,0,1,0-.32H664Z" transform="translate(-645.32 -277)"/><path class="cls-7" d="M667.63,283.89c-0.2-4.72-9.31-.77-10.47-0.55a3.86,3.86,0,0,1-4.08-1.34c-1.86,5.32,1.94,9.77,10.33,4.19a4.09,4.09,0,0,1,3.37-.35c1.49,2,2.13,2.27,2.44,5,0,0,.22-1.87.61-3.82S669.31,283.66,667.63,283.89Z" transform="translate(-645.32 -277)"/><path class="cls-7" d="M668,283c-0.17-4-7.85-.65-8.83-0.47a3.25,3.25,0,0,1-3.44-1.13c-1.57,4.49,1.63,8.24,8.71,3.53a3.45,3.45,0,0,1,2.84-.3c1.26,1.65,1.8,1.92,2.05,4.18,0,0,.19-1.58.52-3.22S669.41,282.83,668,283Z" transform="translate(-645.32 -277)"/><path class="cls-7" d="M655.57,294.63c0,0.21.66,4.23,1.23,5a9.44,9.44,0,0,0,2.84,2c0.26,0.06,2,.34,2.67.46,0.71-.12,2.41-0.4,2.67-0.46a10.94,10.94,0,0,0,2.84-2c0.54-.66,1.57-5.42,1.27-5.11-1.16,2.33-1.23,5.62-5.9,5.62a1,1,0,0,0-1.75,0C656.77,300.12,656.73,297,655.57,294.63Z" transform="translate(-645.32 -277)"/><path class="cls-7" d="M658.51,296.53c1.3,0.73,3.86.18,4.11-.32,0.25,0.5,2.81,1,4.11.32-2-.41-3.09-1.35-4.11-1C661.6,295.18,660.56,296.12,658.51,296.53Z" transform="translate(-645.32 -277)"/><circle class="cls-8" cx="13.46" cy="15.64" r="0.54"/><circle class="cls-8" cx="20.54" cy="15.64" r="0.54"/><path class="cls-7" d="M657.06,291.17c-0.18-.3.76-0.44,1.72-0.44,1.6,0,2.45.8,1.68,0.76A34.15,34.15,0,0,1,657.06,291.17Z" transform="translate(-645.32 -277)"/><path class="cls-7" d="M667.58,291.24c0.18-.3-0.76-0.46-1.71-0.47-1.6,0-2.47.75-1.7,0.73A34.06,34.06,0,0,0,667.58,291.24Z" transform="translate(-645.32 -277)"/><path class="cls-9" d="M668.5,305.28a26.3,26.3,0,0,0-1,4.91c-0.31.1-.62,0.19-0.94,0.27a17.25,17.25,0,0,1-4.28.54,17.05,17.05,0,0,1-5.83-1,23.78,23.78,0,0,0-.93-4.7c0.34-.3,3.39-1.41,4.23-1.8-0.62,3,5,3.33,4.49,0C665.11,303.82,668.16,305,668.5,305.28Z" transform="translate(-645.32 -277)"/></svg>