<svg id="Layer_1" data-name="Layer 1" xmlns="http://www.w3.org/2000/svg" viewBox="0 0 34 34"><defs><style>.cls-1{fill:#ececec;}.cls-1,.cls-10,.cls-11,.cls-12,.cls-2,.cls-3,.cls-4,.cls-5,.cls-6,.cls-9{fill-rule:evenodd;}.cls-2{fill:#0288d1;}.cls-3{fill:#e4b480;}.cls-4{fill:#e7be86;}.cls-5{fill:#eac797;}.cls-6{fill:#282828;}.cls-7{fill:#3f3d3d;}.cls-8{opacity:0.7;}.cls-9{fill:#03a9f4;}.cls-10{fill:#5a5959;}.cls-11{fill:#c69c87;}.cls-12{fill:#d6ae7f;}</style></defs><title>user avatar 2</title><path class="cls-1" d="M679.32,294a17,17,0,0,1-9.12,15.06,16.47,16.47,0,0,1-2.66,1.13c-0.31.1-.62,0.19-0.94,0.27a17.27,17.27,0,0,1-8.87-.08c-0.42-.12-0.83-0.25-1.24-0.4A17,17,0,1,1,679.32,294Z" transform="translate(-645.32 -277)"/><path class="cls-2" d="M659.35,306.79l-1.62,3.59c-0.42-.12-0.83-0.25-1.24-0.4a16.88,16.88,0,0,1-2.37-1.08c0.24-1.69.72-3.44,1.74-3.78C655.86,305.12,659.21,306.68,659.35,306.79Z" transform="translate(-645.32 -277)"/><path class="cls-2" d="M670.2,309.06a16.5,16.5,0,0,1-3.6,1.4l-1.66-3.53c0.15-.11,3.49-1.68,3.49-1.68C669.49,305.6,670,307.37,670.2,309.06Z" transform="translate(-645.32 -277)"/><path class="cls-3" d="M662.05,301.66h-1.57v1c0,0.61-.12.53-0.69,0.84a4.87,4.87,0,0,1-.7.46c0.7,2.21,1.2,5.06,2.56,7.06h0.81c1.36-2,1.87-4.85,2.56-7.06a5.2,5.2,0,0,1-.74-0.5c-0.57-.32-0.66-0.19-0.66-0.8v-1h-1.57Z" transform="translate(-645.32 -277)"/><path class="cls-4" d="M666.38,292.33a2,2,0,0,0,1.69,2.36,2.07,2.07,0,0,0,2.5-1.6,2.12,2.12,0,0,0-1.69-2.5A2.17,2.17,0,0,0,666.38,292.33Z" transform="translate(-645.32 -277)"/><path class="cls-4" d="M654.14,292.33a2,2,0,0,0,1.69,2.36,2.07,2.07,0,0,0,2.5-1.6,2.12,2.12,0,0,0-1.69-2.5A2.17,2.17,0,0,0,654.14,292.33Z" transform="translate(-645.32 -277)"/><path class="cls-5" d="M668.1,286.23a6.32,6.32,0,0,0-4.76-2.63h-0.1v-0.07l-0.92,0-0.92,0v0.07h-0.1a6.32,6.32,0,0,0-4.76,2.63,8.17,8.17,0,0,0-1.19,5.35c0.23,4.78.66,10.14,7,10.19s6.73-5.44,7-10.19A8.18,8.18,0,0,0,668.1,286.23Z" transform="translate(-645.32 -277)"/><path class="cls-6" d="M656.72,284.4c0.2-4.72,9.31-.77,10.47-0.55a3.86,3.86,0,0,0,4.08-1.34c1.86,5.32-1.94,9.77-10.33,4.19a4.09,4.09,0,0,0-3.37-.35c-1.49,2-2.13,2.27-2.44,5,0,0-.22-1.87-0.61-3.82S655,284.17,656.72,284.4Z" transform="translate(-645.32 -277)"/><path class="cls-6" d="M656.36,283.53c0.17-4,7.85-.65,8.83-0.47a3.25,3.25,0,0,0,3.44-1.13c1.57,4.49-1.63,8.24-8.71,3.53a3.45,3.45,0,0,0-2.84-.3c-1.26,1.65-1.8,1.92-2.05,4.18,0,0-.19-1.58-0.52-3.22S654.94,283.34,656.36,283.53Z" transform="translate(-645.32 -277)"/><circle class="cls-7" cx="13.46" cy="15.64" r="0.54"/><circle class="cls-7" cx="20.54" cy="15.64" r="0.54"/><g class="cls-8"><path class="cls-6" d="M657.06,291.17c-0.18-.3.76-0.44,1.72-0.44,1.6,0,2.45.8,1.68,0.76A34.15,34.15,0,0,1,657.06,291.17Z" transform="translate(-645.32 -277)"/><path class="cls-6" d="M667.58,291.24c0.18-.3-0.76-0.46-1.71-0.47-1.6,0-2.47.75-1.7,0.73A34.06,34.06,0,0,0,667.58,291.24Z" transform="translate(-645.32 -277)"/></g><path class="cls-9" d="M668.5,305.28a26.3,26.3,0,0,0-1,4.91c-0.31.1-.62,0.19-0.94,0.27a17.25,17.25,0,0,1-4.28.54,17.05,17.05,0,0,1-5.83-1,23.78,23.78,0,0,0-.93-4.7c0.34-.3,3.39-1.41,4.23-1.8-0.62,3,5,3.33,4.49,0C665.11,303.82,668.16,305,668.5,305.28Z" transform="translate(-645.32 -277)"/><path class="cls-10" d="M668.22,290.57a1.17,1.17,0,0,1,1.21,1.45c-0.09,1.89-.71,2.92-2.63,3.2s-2.84-.52-3.18-2.4a1.55,1.55,0,0,1,.53-1.72,7.92,7.92,0,0,1,4.06-.52h0Zm-11.8,0h0a1.17,1.17,0,0,0-1.21,1.45c0.09,1.89.71,2.92,2.63,3.2s2.84-.52,3.18-2.4a1.55,1.55,0,0,0-.53-1.72,7.92,7.92,0,0,0-4.06-.52h0Zm5.14,0.69h0a0.3,0.3,0,0,1-.25-0.16,1.11,1.11,0,0,0-.46-0.45c-0.86-.49-3.37-0.57-4.35-0.57l-1.31,0a5.45,5.45,0,0,0-1,.13,0.2,0.2,0,0,0-.09.2c0,0.29,0,.58.05,0.88a0.14,0.14,0,0,0,.08.12,0.63,0.63,0,0,1,.33.49,6.7,6.7,0,0,0,.9,2.5,2.25,2.25,0,0,0,1,.81,3.91,3.91,0,0,0,3.71-.23,4.22,4.22,0,0,0,1.06-1.8,9.22,9.22,0,0,0,.28-1,2.15,2.15,0,0,0,0-.22,0.12,0.12,0,0,1,.15-0.14,7.61,7.61,0,0,0,1.15,0,0.12,0.12,0,0,1,.15.14,2.16,2.16,0,0,0,0,.22,9.26,9.26,0,0,0,.28,1,4.22,4.22,0,0,0,1.06,1.8,3.92,3.92,0,0,0,3.71.23,2.25,2.25,0,0,0,1-.81,6.7,6.7,0,0,0,.9-2.5,0.63,0.63,0,0,1,.33-0.49,0.14,0.14,0,0,0,.08-0.12c0-.29,0-0.58.05-0.88a0.2,0.2,0,0,0-.09-0.2,5.45,5.45,0,0,0-1-.13l-1.31,0c-1,0-3.49.07-4.35,0.57a1.11,1.11,0,0,0-.46.45,0.3,0.3,0,0,1-.25.16A4.79,4.79,0,0,1,661.55,291.26Z" transform="translate(-645.32 -277)"/><path class="cls-11" d="M663.9,297.63a2.11,2.11,0,0,1-3,0" transform="translate(-645.32 -277)"/><path class="cls-12" d="M662.32,294s-0.4,2.26-.95,2.7,1.71,0.12,1.71.12,0.22-.3-1.12-0.29A8,8,0,0,0,662.32,294Z" transform="translate(-645.32 -277)"/></svg>