<svg id="Layer_1" data-name="Layer 1" xmlns="http://www.w3.org/2000/svg" viewBox="0 0 34 34"><defs><style>.cls-1{fill:#ececec;}.cls-1,.cls-10,.cls-11,.cls-12,.cls-2,.cls-3,.cls-4,.cls-5,.cls-8,.cls-9{fill-rule:evenodd;}.cls-2{fill:#af222c;}.cls-3{fill:#e4b480;}.cls-4{fill:#e7be86;}.cls-5{fill:#eac797;}.cls-6{fill:#3f3d3d;}.cls-7{opacity:0.7;}.cls-8{fill:#934131;}.cls-9{fill:#841b21;}.cls-10{fill:#c69c87;}.cls-11{fill:#d6ae7f;}.cls-12{fill:#91432b;}</style></defs><title>user avatar 3</title><path class="cls-1" d="M679.32,294a17,17,0,0,1-9.12,15.06,16.47,16.47,0,0,1-2.66,1.13c-0.31.1-.62,0.19-0.94,0.27a17.27,17.27,0,0,1-8.87-.08c-0.42-.12-0.83-0.25-1.24-0.4A17,17,0,1,1,679.32,294Z" transform="translate(-645.32 -277)"/><path class="cls-2" d="M659.35,306.79l-1.62,3.59c-0.42-.12-0.83-0.25-1.24-0.4a16.88,16.88,0,0,1-2.37-1.08c0.24-1.69.72-3.44,1.74-3.78C655.86,305.12,659.21,306.68,659.35,306.79Z" transform="translate(-645.32 -277)"/><path class="cls-2" d="M670.2,309.06a16.5,16.5,0,0,1-3.6,1.4l-1.66-3.53c0.15-.11,3.49-1.68,3.49-1.68C669.49,305.6,670,307.37,670.2,309.06Z" transform="translate(-645.32 -277)"/><path class="cls-3" d="M662.05,301.66h-1.57v1c0,0.61-.12.53-0.69,0.84a4.87,4.87,0,0,1-.7.46c0.7,2.21,1.2,5.06,2.56,7.06h0.81c1.36-2,1.87-4.85,2.56-7.06a5.2,5.2,0,0,1-.74-0.5c-0.57-.32-0.66-0.19-0.66-0.8v-1h-1.57Z" transform="translate(-645.32 -277)"/><path class="cls-4" d="M666.38,292.33a2,2,0,0,0,1.69,2.36,2.07,2.07,0,0,0,2.5-1.6,2.12,2.12,0,0,0-1.69-2.5A2.17,2.17,0,0,0,666.38,292.33Z" transform="translate(-645.32 -277)"/><path class="cls-4" d="M654.14,292.33a2,2,0,0,0,1.69,2.36,2.07,2.07,0,0,0,2.5-1.6,2.12,2.12,0,0,0-1.69-2.5A2.17,2.17,0,0,0,654.14,292.33Z" transform="translate(-645.32 -277)"/><path class="cls-5" d="M668.1,286.23a6.32,6.32,0,0,0-4.76-2.63h-0.1v-0.07l-0.92,0-0.92,0v0.07h-0.1a6.32,6.32,0,0,0-4.76,2.63,8.17,8.17,0,0,0-1.19,5.35c0.23,4.78.66,10.14,7,10.19s6.73-5.44,7-10.19A8.18,8.18,0,0,0,668.1,286.23Z" transform="translate(-645.32 -277)"/><circle class="cls-6" cx="13.46" cy="15.64" r="0.54"/><circle class="cls-6" cx="20.54" cy="15.64" r="0.54"/><g class="cls-7"><path class="cls-8" d="M657.06,291.17c-0.18-.3.76-0.44,1.72-0.44,1.6,0,2.45.8,1.68,0.76A34.15,34.15,0,0,1,657.06,291.17Z" transform="translate(-645.32 -277)"/><path class="cls-8" d="M667.58,291.24c0.18-.3-0.76-0.46-1.71-0.47-1.6,0-2.47.75-1.7,0.73A34.06,34.06,0,0,0,667.58,291.24Z" transform="translate(-645.32 -277)"/></g><path class="cls-9" d="M668.5,305.28a26.3,26.3,0,0,0-1,4.91c-0.31.1-.62,0.19-0.94,0.27a17.25,17.25,0,0,1-4.28.54,17.05,17.05,0,0,1-5.83-1,23.78,23.78,0,0,0-.93-4.7c0.34-.3,3.39-1.41,4.23-1.8-0.62,3,5,3.33,4.49,0C665.11,303.82,668.16,305,668.5,305.28Z" transform="translate(-645.32 -277)"/><path class="cls-10" d="M663.9,297.63a2.11,2.11,0,0,1-3,0" transform="translate(-645.32 -277)"/><path class="cls-11" d="M662.32,294s-0.4,2.26-.95,2.7,1.71,0.12,1.71.12,0.22-.3-1.12-0.29A8,8,0,0,0,662.32,294Z" transform="translate(-645.32 -277)"/><path class="cls-8" d="M656.87,288.05c-0.09.19,0.41-1.7,1.5-1.73s8.25,0.4,8.62-.08c1.2,1.52,2.08,7.57,2.15,7.56a1.25,1.25,0,0,0,.19-0.75,21.12,21.12,0,0,0,.15-2.7c0-1.66.48-4.85-2.52-6.84-1.84-1.22-5.66-1.34-7.78-.65a5.61,5.61,0,0,0-3.42,3.2c-0.58,1.61-.56,2.86-0.37,6,0,0.35.06,0.69,0.11,1a6.69,6.69,0,0,0,.12.68C655.92,295,655.95,289.49,656.87,288.05Z" transform="translate(-645.32 -277)"/><path class="cls-8" d="M657,285.53c-0.12-.71-0.71-0.75-0.61-1.59a8.11,8.11,0,0,1,2-3.12,3.83,3.83,0,0,1,1.49-.87,1.33,1.33,0,0,0-.27.55c0.19-.19,1.13-0.63,1.53-0.89a1.71,1.71,0,0,1,.54-0.39c-0.05.13-.31,0.62-0.12,0.5a3.18,3.18,0,0,0,1.28-.73,7,7,0,0,0,.92-1.24,19.84,19.84,0,0,0,1.14,1.74c0.3,0.54.34,0.86,0.4,0.71l0.34-.7a13.9,13.9,0,0,1,1.53,1.56c0.43,0.59.52,1,.58,0.86s0.16-.51.16-0.51a5.25,5.25,0,0,1,.42,2.17,14.51,14.51,0,0,1-.5,1.63,38,38,0,0,1-5.34,1c-0.66,0-4.91-1.16-5-1.49Z" transform="translate(-645.32 -277)"/><path class="cls-12" d="M655.87,295.76c0,0.19.79,3.93,1.33,4.63a8.89,8.89,0,0,0,2.68,1.83c0.24,0.06,1.84.32,2.51,0.43,0.67-.11,2.27-0.37,2.51-0.43a10.3,10.3,0,0,0,2.68-1.83c0.5-.62,1.58-5.14,1.29-4.85-1.09,2.18-1.26,5.32-5.65,5.32a0.95,0.95,0,0,0-1.65,0C657.16,300.86,657,297.94,655.87,295.76Z" transform="translate(-645.32 -277)"/></svg>